PathFileType	4	(X/Y/Z)	Patient4_TMGait_0pt7_01_left_15.trc.trc
DataRate	CameraRate	NumFrames	NumMarkers	Units	OrigDataRate	OrigDataStartFrame	OrigNumFrames
87.500000000000	87.500000000000	4	33	mm	87.500000000000	18	       141
Frame#	Time	Sacral			L.Shoulder			Chest			R.Shoulder			Neck			R.ASIS			L.ASIS			R.Thigh.Superior			R.Thigh.Lateral			R.Thigh.Inferior			R.Patella			L.Thigh.Superior			L.Thigh.Lateral			L.Thigh.Inferior			L.Patella			L.Shank.Superior			L.Shank.Lateral			L.Shank.Inferior			R.Shank.Superior			R.Shank.Lateral			R.Shank.Inferior			R.Heel			R.Midfoot.Superior			R.Midfoot.Lateral			R.Toe			L.Heel			L.Midfoot.Lateral			L.Midfoot.Superior			L.Toe			L.Elbow			L.Wrist			R.Elbow			R.Wrist			
		X1	Y1	Z1	X2	Y2	Z2	X3	Y3	Z3	X4	Y4	Z4	X5	Y5	Z5	X6	Y6	Z6	X7	Y7	Z7	X8	Y8	Z8	X9	Y9	Z9	X10	Y10	Z10	X11	Y11	Z11	X12	Y12	Z12	X13	Y13	Z13	X14	Y14	Z14	X15	Y15	Z15	X16	Y16	Z16	X17	Y17	Z17	X18	Y18	Z18	X19	Y19	Z19	X20	Y20	Z20	X21	Y21	Z21	X22	Y22	Z22	X23	Y23	Z23	X24	Y24	Z24	X25	Y25	Z25	X26	Y26	Z26	X27	Y27	Z27	X28	Y28	Z28	X29	Y29	Z29	X30	Y30	Z30	X31	Y31	Z31	X32	Y32	Z32	X33	Y33	Z33	

18	17.364285714286	822.082864241760	1010.597593233240	531.836957661192	1009.576704571893	1423.781550127486	330.806830910075	1125.044620549354	1346.437534826819	479.945763184533	1069.693240914683	1429.915498491773	660.526863546135	1033.634785176406	1486.184851631431	485.251441070825	1051.584205836028	935.822503755700	631.897524597795	1019.714807023607	953.329590846148	358.004775071639	1050.342704771861	724.839509597320	604.877495347416	948.350884386788	632.021656625640	668.409997761930	1007.374157899855	567.156748274257	586.816420069018	989.594134568851	483.796630738953	592.105082369762	1101.870183677771	785.221745057479	393.878367158712	1071.840423077529	658.171658978964	306.923724935274	1173.657086715193	603.555147006139	375.358245606643	1207.324818867354	538.694544358954	367.912431417798	1189.843476020226	463.669421421043	355.138208134402	1126.104923724408	335.811651866051	295.312651845370	1208.417616229771	234.051122346988	352.502104375897	954.641531525532	399.013350040593	598.666090052964	874.224226561344	301.332510177617	658.873900555980	907.996792983092	203.876322978255	594.763125876438	762.880665035483	43.799850057005	560.052180053809	932.995221124523	96.292580475078	602.023680789002	842.708931108215	37.057795931311	638.024145887836	1051.612447721320	40.943035731541	636.357529660912	1124.152871576068	51.092363129917	378.874976948761	1203.667347393553	60.098681736312	304.481684023248	1269.977400895619	139.917515050902	331.984007955156	1406.669759449686	115.102864759275	315.075466478066	869.983346443554	1095.194833383185	241.621374711347	819.171983614694	842.894609601692	242.784639801036	1203.014309705465	1125.961745927973	788.303264174528	1442.511717828947	1161.052296375926	707.298831992771	
19	17.375714285714	823.180933087158	1009.385128107612	530.561985788923	1008.910650876645	1423.122953097608	329.476421087513	1124.808559286665	1345.954584321797	478.281282226020	1069.616215820538	1429.354525353082	658.863895216815	1033.198828092050	1485.375837078070	483.874307669991	1052.739109416399	934.808876662508	630.248436720045	1020.537769532927	952.111401161627	356.306062413096	1049.888934320204	723.377373871173	603.661804377761	946.932001927939	631.277193350877	667.317508761143	1005.149854845474	565.820337568788	585.732263519839	986.441138610204	482.467194550552	590.877878809770	1101.658485256771	782.290018154484	392.109473638768	1068.864564403096	654.968923709324	306.204937661015	1170.636916169744	599.785475869799	373.825070255926	1203.488185530822	535.653628786800	367.038687332660	1187.190808325993	461.018082875485	354.430583222672	1125.120974701327	331.602926755292	296.548305772716	1210.106282396053	231.859472209477	353.400359670241	950.616025200107	397.938570362517	597.770062060992	869.305800704006	301.271711393634	658.555056506486	901.513993847005	203.337624272872	594.427936626086	754.873362213721	43.928366749920	560.167977134579	925.028610516024	96.252418738290	602.012211288955	834.709111712611	37.056193608045	638.145731722606	1043.569838231776	40.787497966929	636.369464863348	1129.408137919606	48.192880790432	382.333420673969	1207.915691966451	57.337943619072	306.981386958978	1273.658947365915	137.988066604913	332.982420044218	1410.346591194469	114.442645507415	314.768344738056	863.769955095556	1097.721184134377	240.233354196852	809.278161498665	846.196890370683	242.465242112987	1208.486973209302	1128.832601531388	785.246219189458	1442.876043921404	1180.448941902520	700.681303987640	
20	17.387142857143	824.469160289613	1008.045507612174	529.013262628307	1008.355849099738	1422.428422112937	328.029938195899	1124.622372078524	1345.483634315081	476.566287452569	1069.390693525172	1428.736956405240	657.107776895943	1032.737676450457	1484.502821613722	482.404292863668	1054.052804730392	933.704528836318	628.451000521193	1021.660213065673	950.768040166222	354.476774693929	1049.650686039616	721.839824713897	602.337662485784	945.719498735640	630.451680403414	666.102846976643	1003.236991225089	564.382797815825	584.586866330872	983.598602514860	480.974698643096	589.576431068019	1101.783870234437	779.233792907693	390.006999216980	1065.824909100811	651.526576259438	305.590805618899	1167.788210366164	595.886705795607	372.103243936293	1199.556209928807	532.125356000618	366.056987786366	1184.097315287995	457.841015597056	353.693837268992	1122.780468585631	327.256485667067	298.152001766212	1210.020644459287	229.148745232060	354.450855508534	946.853944588989	396.721331197528	596.786538512922	864.552871620404	301.177649841506	658.176525585144	895.116594601371	202.739104108943	594.080363599199	746.861213200686	44.061184077757	560.291262247360	917.070168519732	96.220206616958	601.993848476458	826.719447664357	37.034611522885	638.249310417459	1035.532608714860	40.615337325330	636.391473342107	1131.828247559472	45.599193013375	386.281968062497	1209.077943691011	54.374961727443	309.690361353139	1274.953666020532	135.184749035026	334.079197257342	1411.309666843837	111.803038807801	314.019392820104	858.099910769897	1100.165927453407	238.778886856773	800.526505958799	849.258705851781	242.199383671456	1213.493427947505	1131.514888034310	781.977117300558	1441.766415215516	1198.805594480385	694.168950114194	
21	17.398571428571	825.908546881735	1006.580953720348	527.191565384729	1007.921979545715	1421.669713915944	326.453656122861	1124.494187438610	1345.001477181731	474.797588551525	1069.023002086081	1428.045944464205	655.255744837019	1032.256672727378	1483.554612352298	480.827050601481	1055.495333454907	932.493175511269	626.518456428580	1023.067642773926	949.314646410860	352.533237855840	1049.631106800272	720.221736976380	600.898154388783	944.742847615428	629.521683223959	664.757476645868	1001.678872049037	562.831113276556	583.365518587033	981.127368927457	479.272929280615	588.200781873424	1102.235643495784	776.087903730557	387.604710947938	1062.807849000575	647.922534234684	305.061303474947	1165.179755746804	591.940041055462	370.248983845119	1195.616704126453	528.207118088040	365.041717008336	1180.698953331764	454.240053724527	352.975547903993	1119.369141222378	322.841087044333	299.958446450312	1208.404410356034	225.967475086110	355.594236352214	943.379613179905	395.333464805293	595.705857449174	859.985047016216	301.032080960179	657.719206550085	888.809539427122	202.070388196683	593.706731735837	738.834866893905	44.210015422936	560.428692820614	909.120128268700	96.201911807598	601.964149536988	818.735278476115	37.005538699969	638.339114565916	1027.506604233148	40.431545695823	636.426036076883	1131.637150020802	43.293943287556	390.392542182410	1207.514083301798	51.267124355859	312.414092807139	1274.168918069670	131.564811408647	335.269535150424	1409.931415908134	107.269362849369	313.041315194652	853.048303257512	1102.416309939488	237.279072091591	792.859013414758	852.002165785573	241.967420726817	1218.034695050560	1133.962994218166	778.541325340164	1439.346977752146	1215.980782190562	687.807821696214	
